<svg width="127" height="38" xmlns="http://www.w3.org/2000/svg"><g fill="none"><path d="M122.482 38H4.449C1.996 38 0 35.978 0 33.504V4.49C0 2.014 1.996 0 4.449 0h118.033C124.933 0 127 2.014 127 4.49v29.014c0 2.474-2.067 4.496-4.518 4.496Z" fill="#A6A6A6"/><path d="M126.09 33.505c0 2.01-1.613 3.638-3.607 3.638H4.449c-1.994 0-3.612-1.628-3.612-3.638V4.489C.837 2.479 2.455.846 4.45.846h118.033c1.995 0 3.606 1.633 3.606 3.643l.001 29.016Z" fill="#000"/><path d="M28.343 18.795c-.028-3.062 2.482-4.552 2.597-4.621-1.421-2.093-3.625-2.379-4.399-2.402-1.85-.196-3.645 1.119-4.588 1.119-.961 0-2.413-1.1-3.977-1.067-2.014.031-3.897 1.208-4.93 3.036-2.132 3.727-.542 9.203 1.5 12.216 1.022 1.475 2.216 3.123 3.779 3.065 1.528-.064 2.1-.985 3.944-.985 1.828 0 2.364.985 3.958.948 1.64-.027 2.673-1.482 3.66-2.971 1.18-1.691 1.654-3.356 1.673-3.442-.039-.013-3.186-1.226-3.217-4.896ZM25.332 9.79c.822-1.038 1.385-2.45 1.229-3.884-1.19.053-2.678.831-3.535 1.847-.759.895-1.436 2.362-1.261 3.741 1.337.1 2.71-.681 3.567-1.703Zm25.134 20.139H48.33l-1.17-3.714h-4.068l-1.115 3.714h-2.08l4.03-12.643h2.49l4.049 12.643Zm-3.66-5.272-1.058-3.301c-.112-.337-.322-1.131-.631-2.382h-.038a92.658 92.658 0 0 1-.594 2.382l-1.04 3.301h3.362Zm14.024.602c0 1.55-.415 2.776-1.244 3.675-.744.801-1.666 1.201-2.768 1.201-1.19 0-2.043-.431-2.564-1.294h-.037v4.802H52.21v-9.83c0-.974-.025-1.974-.074-3H53.9l.112 1.445h.037c.67-1.09 1.684-1.633 3.046-1.633 1.065 0 1.954.425 2.665 1.275.714.852 1.07 1.97 1.07 3.359Zm-2.043.074c0-.888-.198-1.62-.595-2.195-.433-.6-1.016-.9-1.746-.9-.495 0-.944.167-1.346.496a2.308 2.308 0 0 0-.79 1.305 2.72 2.72 0 0 0-.092.617v1.52c0 .663.201 1.223.604 1.68.402.457.925.685 1.569.685.755 0 1.343-.295 1.764-.882.421-.588.632-1.363.632-2.326Zm12.426-.074c0 1.55-.415 2.776-1.245 3.675-.743.801-1.666 1.201-2.767 1.201-1.19 0-2.043-.431-2.563-1.294h-.037v4.802h-2.006v-9.83c0-.974-.025-1.974-.074-3h1.764l.112 1.445h.037c.668-1.09 1.683-1.633 3.046-1.633 1.064 0 1.953.425 2.666 1.275.71.852 1.067 1.97 1.067 3.359Zm-2.043.074c0-.888-.199-1.62-.596-2.195-.433-.6-1.014-.9-1.745-.9a2.08 2.08 0 0 0-1.347.496 2.307 2.307 0 0 0-.788 1.305 2.73 2.73 0 0 0-.093.617v1.52c0 .663.201 1.223.602 1.68.402.456.925.685 1.57.685.756 0 1.344-.295 1.765-.882.421-.588.632-1.363.632-2.326Zm13.652 1.05c0 1.076-.37 1.95-1.112 2.626-.816.738-1.951 1.107-3.41 1.107-1.347 0-2.427-.262-3.245-.788l.465-1.688c.88.538 1.847.808 2.9.808.755 0 1.343-.173 1.765-.517.42-.344.63-.806.63-1.381a1.77 1.77 0 0 0-.52-1.296c-.345-.35-.922-.677-1.727-.978-2.192-.825-3.287-2.035-3.287-3.625 0-1.04.384-1.891 1.152-2.554.766-.665 1.788-.996 3.065-.996 1.14 0 2.086.2 2.841.6l-.501 1.651c-.706-.387-1.503-.58-2.396-.58-.706 0-1.257.175-1.652.524a1.508 1.508 0 0 0-.502 1.145c0 .5.191.913.575 1.238.334.3.941.625 1.822.976 1.077.438 1.868.95 2.377 1.537.507.585.76 1.317.76 2.191Zm6.631-4.05h-2.21v4.426c0 1.125.389 1.688 1.17 1.688.358 0 .655-.032.89-.094l.056 1.538c-.395.149-.915.224-1.56.224-.792 0-1.41-.244-1.858-.731-.445-.489-.668-1.308-.668-2.458V22.33h-1.318v-1.52h1.318v-1.67l1.97-.6v2.27h2.21v1.522Zm9.975 2.963c0 1.4-.397 2.551-1.19 3.451-.83.926-1.932 1.388-3.307 1.388-1.324 0-2.379-.444-3.166-1.331-.786-.887-1.18-2.007-1.18-3.357 0-1.413.405-2.57 1.217-3.47.81-.9 1.903-1.35 3.278-1.35 1.324 0 2.39.443 3.194 1.331.77.862 1.154 1.974 1.154 3.338Zm-2.081.065c0-.84-.178-1.562-.538-2.163-.42-.728-1.022-1.09-1.8-1.09-.807 0-1.42.363-1.84 1.09-.36.602-.538 1.335-.538 2.201 0 .84.178 1.562.538 2.162.434.728 1.04 1.091 1.821 1.091.766 0 1.367-.37 1.8-1.11.37-.612.557-1.341.557-2.18Zm8.6-2.767a3.45 3.45 0 0 0-.632-.056c-.706 0-1.251.269-1.635.807-.334.475-.501 1.076-.501 1.8v4.784h-2.005l.019-6.245c0-1.051-.026-2.008-.076-2.87h1.747l.074 1.744h.055c.212-.6.546-1.082 1.003-1.444a2.41 2.41 0 0 1 1.45-.489c.185 0 .353.014.501.038v1.93Zm8.97 2.346c0 .362-.023.668-.073.918h-6.017c.023.9.314 1.59.873 2.064.507.425 1.163.638 1.968.638.89 0 1.703-.144 2.434-.431l.315 1.406c-.855.376-1.863.563-3.027.563-1.4 0-2.498-.416-3.298-1.247-.798-.832-1.198-1.948-1.198-3.348 0-1.375.372-2.52 1.116-3.433.78-.974 1.832-1.462 3.156-1.462 1.301 0 2.286.488 2.955 1.462.53.775.796 1.732.796 2.87Zm-1.912-.526c.013-.6-.118-1.12-.39-1.557-.347-.563-.88-.845-1.598-.845-.656 0-1.19.275-1.597.826-.334.438-.532.963-.593 1.575h4.178v.001ZM46.143 9.509c0 1.118-.332 1.96-.995 2.525-.614.521-1.487.782-2.618.782-.56 0-1.04-.024-1.442-.074v-6.11a10.54 10.54 0 0 1 1.698-.128c1.077 0 1.889.236 2.436.71.614.534.921 1.299.921 2.295Zm-1.04.027c0-.725-.19-1.28-.57-1.668-.38-.387-.934-.58-1.665-.58-.31 0-.575.02-.794.064v4.645c.121.019.343.027.666.027.754 0 1.337-.212 1.747-.635.41-.424.617-1.042.617-1.853Zm6.552.949c0 .689-.195 1.253-.584 1.696-.408.455-.95.682-1.625.682-.65 0-1.17-.218-1.556-.655-.385-.436-.578-.986-.578-1.649 0-.693.198-1.262.597-1.704.399-.442.935-.663 1.61-.663.652 0 1.175.217 1.57.653.377.424.566.971.566 1.64Zm-1.022.032c0-.413-.089-.767-.265-1.063-.207-.357-.501-.535-.884-.535-.396 0-.697.178-.904.535-.177.296-.264.656-.264 1.081 0 .414.088.768.264 1.064.213.357.51.535.894.535.377 0 .672-.181.885-.545.182-.301.274-.658.274-1.072Zm8.413-2.234-1.388 4.478h-.903l-.575-1.944a14.673 14.673 0 0 1-.356-1.447h-.018c-.086.492-.204.974-.357 1.447l-.61 1.944h-.914L52.62 8.283h1.014l.5 2.129c.122.503.222.983.302 1.437h.018c.073-.374.195-.85.366-1.428l.63-2.137h.803l.603 2.092c.145.51.264 1.001.355 1.474h.027c.067-.46.168-.952.301-1.474l.539-2.092h.968v-.001Zm5.111 4.478h-.986v-2.565c0-.79-.298-1.185-.894-1.185a.886.886 0 0 0-.712.326 1.163 1.163 0 0 0-.274.767v2.656h-.986V9.563c0-.394-.012-.82-.036-1.282h.867l.046.7h.027c.115-.217.286-.397.511-.54.267-.167.566-.252.894-.252.414 0 .758.135 1.032.406.34.331.51.826.51 1.484v2.682Zm2.718 0h-.985V6.228h.985zm5.805-2.276c0 .689-.195 1.253-.584 1.696-.409.455-.95.682-1.625.682-.652 0-1.17-.218-1.556-.655-.386-.436-.579-.986-.579-1.649 0-.693.199-1.262.598-1.704.399-.442.935-.663 1.61-.663.651 0 1.173.217 1.57.653.377.424.566.971.566 1.64Zm-1.024.032c0-.413-.088-.767-.264-1.063-.206-.357-.502-.535-.883-.535-.397 0-.699.178-.905.535-.176.296-.264.656-.264 1.081 0 .414.089.768.264 1.064.214.357.511.535.895.535.376 0 .67-.181.883-.545.184-.301.274-.658.274-1.072Zm5.795 2.244h-.885l-.073-.515h-.028c-.303.41-.734.617-1.295.617-.419 0-.757-.136-1.012-.406a1.279 1.279 0 0 1-.347-.912c0-.547.225-.964.68-1.253.453-.289 1.09-.43 1.912-.423v-.084c0-.59-.306-.884-.92-.884-.438 0-.824.11-1.157.331l-.2-.653c.412-.258.92-.387 1.52-.387 1.16 0 1.741.617 1.741 1.852v1.65c0 .447.022.803.064 1.067Zm-1.023-1.539v-.69c-1.088-.02-1.632.282-1.632.902 0 .234.063.409.19.526a.686.686 0 0 0 .481.174.99.99 0 0 0 .603-.207.849.849 0 0 0 .358-.705Zm6.625 1.539h-.875l-.046-.719h-.027c-.28.547-.755.821-1.424.821-.535 0-.98-.212-1.332-.636-.353-.423-.529-.973-.529-1.649 0-.725.19-1.312.575-1.76.371-.418.827-.627 1.369-.627.595 0 1.012.202 1.249.608h.019v-2.57h.986v5.326c0 .436.012.838.035 1.206Zm-1.021-1.888v-.747a1.136 1.136 0 0 0-.384-.917.963.963 0 0 0-.66-.244c-.367 0-.655.147-.867.443-.21.295-.316.672-.316 1.133 0 .443.1.802.303 1.078.213.295.501.442.862.442a.946.946 0 0 0 .778-.368c.19-.227.284-.501.284-.82Zm9.453-.388c0 .689-.195 1.253-.584 1.696-.408.455-.948.682-1.625.682-.65 0-1.168-.218-1.556-.655-.385-.436-.578-.986-.578-1.649 0-.693.198-1.262.597-1.704.399-.442.935-.663 1.612-.663.65 0 1.174.217 1.569.653.376.424.565.971.565 1.64Zm-1.021.032c0-.413-.089-.767-.265-1.063-.208-.357-.501-.535-.885-.535-.395 0-.696.178-.904.535-.177.296-.264.656-.264 1.081 0 .414.088.768.264 1.064.213.357.51.535.895.535.376 0 .672-.181.885-.545.181-.301.274-.658.274-1.072Zm6.322 2.244h-.985v-2.565c0-.79-.297-1.185-.894-1.185a.883.883 0 0 0-.712.326 1.158 1.158 0 0 0-.273.767v2.656h-.987V9.563c0-.394-.011-.82-.035-1.282h.866l.046.7h.027c.116-.217.287-.397.51-.54.269-.167.567-.252.895-.252.413 0 .758.135 1.031.406.342.331.511.826.511 1.484v2.682Zm6.635-3.732h-1.085v2.175c0 .553.193.83.574.83.177 0 .324-.016.44-.047l.025.755c-.195.074-.45.111-.766.111-.39 0-.692-.12-.911-.359-.22-.239-.33-.642-.33-1.207V9.029h-.648v-.746h.649v-.82l.966-.295v1.114h1.085v.747h.001Zm5.219 3.732h-.986v-2.546c0-.802-.298-1.204-.893-1.204-.457 0-.77.233-.94.698-.03.098-.047.218-.047.358v2.693h-.985V6.228h.985v2.7h.019c.31-.492.755-.737 1.332-.737.408 0 .746.135 1.014.406.334.337.502.838.502 1.502v2.662Zm5.384-2.451c0 .179-.013.33-.036.452h-2.957c.013.442.154.78.428 1.013.25.21.573.314.968.314.437 0 .836-.07 1.196-.212l.154.691c-.42.185-.915.277-1.488.277-.687 0-1.228-.204-1.62-.613-.393-.408-.587-.956-.587-1.644 0-.676.181-1.238.547-1.686.382-.48.899-.719 1.55-.719.638 0 1.123.24 1.45.719.265.38.395.85.395 1.408Zm-.94-.257a1.35 1.35 0 0 0-.191-.765c-.172-.276-.432-.415-.785-.415a.933.933 0 0 0-.785.406c-.163.215-.26.473-.292.774h2.053Z" fill="#FFF"/></g></svg>