<svg width="128" height="38" xmlns="http://www.w3.org/2000/svg"><defs><linearGradient x1="91.49%" y1="4.96%" x2="-38.317%" y2="71.909%" id="a"><stop stop-color="#00A0FF" offset="0%"/><stop stop-color="#00A1FF" offset=".66%"/><stop stop-color="#00BEFF" offset="26.01%"/><stop stop-color="#00D2FF" offset="51.22%"/><stop stop-color="#00DFFF" offset="76.04%"/><stop stop-color="#00E3FF" offset="100%"/></linearGradient><linearGradient x1="107.586%" y1="50.016%" x2="-130.492%" y2="50.016%" id="b"><stop stop-color="#FFE000" offset="0%"/><stop stop-color="#FFBD00" offset="40.87%"/><stop stop-color="orange" offset="77.54%"/><stop stop-color="#FF9C00" offset="100%"/></linearGradient><linearGradient x1="86.238%" y1="117.851%" x2="-50.131%" y2="294.785%" id="c"><stop stop-color="#FF3A44" offset="0%"/><stop stop-color="#C31162" offset="100%"/></linearGradient><linearGradient x1="-18.801%" y1="-154.171%" x2="42.094%" y2="-75.137%" id="d"><stop stop-color="#32A071" offset="0%"/><stop stop-color="#2DA771" offset="6.85%"/><stop stop-color="#15CF74" offset="47.62%"/><stop stop-color="#06E775" offset="80.09%"/><stop stop-color="#00F076" offset="100%"/></linearGradient></defs><g fill="none"><path d="M122.926 37.75H5.117c-2.59 0-4.712-2.111-4.712-4.689V4.931C.405 2.355 2.527.244 5.117.244h117.809c2.59 0 4.712 2.111 4.712 4.689v28.13c0 2.577-2.122 4.688-4.712 4.688Z" fill="#000"/><path d="M122.926.995c2.181 0 3.957 1.766 3.957 3.937v28.13c0 2.17-1.776 3.936-3.957 3.936H5.117c-2.182 0-3.957-1.766-3.957-3.937V4.931c0-2.17 1.775-3.936 3.957-3.936h117.809Zm0-.752H5.117C2.527.243.405 2.354.405 4.932v28.13c0 2.577 2.122 4.688 4.712 4.688h117.809c2.59 0 4.712-2.111 4.712-4.689V4.931c0-2.577-2.122-4.688-4.712-4.688Z" fill="#A6A6A6"/><path d="M45.094 9.848c0 .783-.235 1.41-.7 1.878-.533.555-1.228.833-2.08.833-.814 0-1.51-.283-2.08-.842-.57-.568-.856-1.264-.856-2.097s.285-1.53.857-2.092a2.852 2.852 0 0 1 2.08-.848c.404 0 .79.084 1.16.238.367.156.666.367.883.627l-.492.495c-.379-.444-.893-.663-1.552-.663-.594 0-1.109.206-1.546.622-.432.417-.649.958-.649 1.62 0 .664.217 1.21.65 1.627.436.411.951.622 1.545.622.63 0 1.16-.211 1.579-.627.275-.276.432-.655.473-1.14h-2.052v-.678h2.738c.033.147.042.288.042.425ZM49.438 7.5h-2.572v1.78h2.319v.678h-2.319v1.781h2.572v.69h-3.3V6.81h3.3zm3.065 4.93h-.728V7.5h-1.577v-.69h3.884v.69h-1.579v4.93zm4.39 0V6.81h.727v5.62zm3.949 0h-.722V7.5h-1.584v-.69h3.89v.69h-1.584zm8.937-.723c-.558.569-1.248.852-2.071.852-.829 0-1.519-.283-2.076-.852-.556-.567-.833-1.263-.833-2.087 0-.824.277-1.52.833-2.088.557-.568 1.247-.852 2.076-.852.818 0 1.509.284 2.066.857.56.572.838 1.264.838 2.083 0 .824-.277 1.52-.833 2.087Zm-3.609-.47c.42.42.93.631 1.538.631.603 0 1.118-.211 1.532-.632.419-.42.63-.96.63-1.616 0-.655-.211-1.196-.63-1.616a2.074 2.074 0 0 0-1.532-.632c-.608 0-1.118.21-1.538.632-.418.42-.63.96-.63 1.616 0 .655.212 1.195.63 1.616Zm5.463 1.193V6.81h.884l2.747 4.371h.032l-.032-1.08V6.808h.727v5.622h-.759l-2.877-4.588h-.032l.032 1.085v3.503h-.722z" fill="#FFF" stroke="#FFF" stroke-width=".586"/><path d="M64.62 20.64c-2.214 0-4.022 1.676-4.022 3.988 0 2.294 1.808 3.988 4.022 3.988 2.218 0 4.027-1.694 4.027-3.988 0-2.312-1.809-3.988-4.027-3.988Zm0 6.405c-1.215 0-2.26-.997-2.26-2.417 0-1.438 1.045-2.418 2.26-2.418 1.214 0 2.264.98 2.264 2.418 0 1.42-1.05 2.417-2.264 2.417Zm-8.776-6.405c-2.218 0-4.022 1.676-4.022 3.988 0 2.294 1.804 3.988 4.022 3.988 2.217 0 4.022-1.694 4.022-3.988 0-2.312-1.805-3.988-4.022-3.988Zm0 6.405c-1.215 0-2.264-.997-2.264-2.417 0-1.438 1.049-2.418 2.264-2.418 1.215 0 2.26.98 2.26 2.418 0 1.42-1.045 2.417-2.26 2.417Zm-10.442-5.183v1.695h4.068c-.12.947-.437 1.643-.925 2.128-.594.587-1.519 1.237-3.143 1.237-2.504 0-4.464-2.01-4.464-4.5 0-2.491 1.96-4.501 4.464-4.501 1.353 0 2.338.526 3.065 1.208l1.2-1.194c-1.016-.966-2.368-1.708-4.265-1.708-3.433 0-6.318 2.779-6.318 6.194 0 3.416 2.885 6.195 6.318 6.195 1.855 0 3.249-.605 4.345-1.74 1.122-1.117 1.472-2.687 1.472-3.955 0-.394-.033-.756-.092-1.059h-5.725Zm42.7 1.314c-.33-.892-1.352-2.536-3.432-2.536-2.062 0-3.778 1.616-3.778 3.988 0 2.234 1.698 3.988 3.976 3.988 1.84 0 2.904-1.117 3.34-1.768l-1.366-.906c-.456.664-1.077 1.103-1.974 1.103-.892 0-1.532-.407-1.942-1.208l5.362-2.207-.185-.454Zm-5.466 1.328c-.046-1.538 1.2-2.325 2.094-2.325.7 0 1.293.348 1.491.846l-3.585 1.479Zm-4.357 3.869h1.762v-11.72h-1.762v11.72Zm-2.887-6.845h-.059c-.395-.466-1.15-.888-2.107-.888-2.008 0-3.843 1.753-3.843 4.001 0 2.235 1.835 3.975 3.843 3.975.956 0 1.712-.426 2.107-.906h.06v.572c0 1.524-.82 2.344-2.14 2.344-1.077 0-1.745-.774-2.02-1.424l-1.533.636c.442 1.057 1.611 2.358 3.553 2.358 2.066 0 3.81-1.21 3.81-4.152v-7.162h-1.67v.646Zm-2.015 5.517c-1.215 0-2.232-1.011-2.232-2.404 0-1.405 1.017-2.43 2.232-2.43 1.197 0 2.14 1.025 2.14 2.43 0 1.393-.943 2.404-2.14 2.404Zm22.977-10.393h-4.215v11.721h1.757v-4.44h2.458c1.952 0 3.866-1.406 3.866-3.641 0-2.234-1.919-3.64-3.866-3.64Zm.046 5.65h-2.504v-4.02H96.4c1.312 0 2.062 1.085 2.062 2.01 0 .907-.75 2.01-2.062 2.01Zm10.865-1.685c-1.27 0-2.59.558-3.133 1.795l1.56.65c.335-.65.952-.861 1.605-.861.912 0 1.837.545 1.85 1.507v.123c-.317-.183-.998-.453-1.836-.453-1.68 0-3.391.92-3.391 2.637 0 1.57 1.376 2.582 2.922 2.582 1.183 0 1.836-.531 2.246-1.149h.06v.906h1.698v-4.496c0-2.078-1.56-3.24-3.58-3.24Zm-.212 6.423c-.575 0-1.376-.283-1.376-.992 0-.908 1-1.256 1.864-1.256.774 0 1.137.17 1.607.394a2.13 2.13 0 0 1-2.095 1.854Zm9.977-6.166-2.02 5.081h-.06l-2.089-5.08h-1.895l3.138 7.1-1.79 3.95h1.836l4.836-11.05h-1.956Zm-15.844 7.499h1.763v-11.72h-1.763v11.72Z" fill="#FFF"/><path d="M.838 23.827C.561 23.54.401 23.09.401 22.51V1.772c0-.581.16-1.03.437-1.318L.906.39l11.68 11.616v.274L.906 23.895l-.068-.068Z" transform="matrix(1 0 0 -1 9.402 31.14)" fill="url(#a)"/><path d="M4.266.677.377 4.551v.274L4.271 8.7l.087-.05 4.61-2.61c1.317-.741 1.317-1.96 0-2.706L4.359.728l-.092-.05Z" transform="matrix(1 0 0 -1 21.61 23.685)" fill="url(#b)"/><path d="m16.139 8.182-3.981 3.96L.41.455C.847-.003 1.56-.058 2.37.399l13.77 7.783" transform="matrix(1 0 0 -1 9.83 31.14)" fill="url(#c)"/><path d="M16.139 3.96 2.37 11.744c-.81.453-1.523.397-1.96-.06L12.158 0l3.98 3.96Z" transform="matrix(1 0 0 -1 9.83 18.996)" fill="url(#d)"/></g></svg>